<svg width="348" height="515" viewBox="0 0 348 515" fill="none" xmlns="http://www.w3.org/2000/svg">
<g filter="url(#filter0_bi_494_85)">
<path d="M0.196269 471.859V31.1237C1.28479 8.58174 18.6562 1.26193 27.2059 0.419778C61.276 0.355003 129.805 0.264316 131.36 0.419778C133.303 0.614106 135.635 1.39142 137.189 7.60991C138.433 12.5847 144.832 13.5693 147.876 13.4397H202.868C207.532 13.4397 209.669 9.55329 211.807 4.50077C213.517 0.458748 215.758 -0.163101 216.665 0.0312268C242.962 0.0960027 300.843 0.303286 321.984 0.61421C343.126 0.925135 348.023 25.4882 347.828 37.7308C347.958 177.647 348.139 462.531 347.828 482.742C347.517 502.952 331.376 512.668 323.344 515H35.1733C3.92715 515 -1.16395 486.239 0.196269 471.859Z" fill="url(#paint0_linear_494_85)" fill-opacity="0.1"/>
<path d="M1.19183 471.953L1.19627 471.906V471.859V31.1479C1.73231 20.1715 6.21424 12.9684 11.5538 8.39371C16.9071 3.80724 23.1599 1.83359 27.2566 1.41968C44.2915 1.38732 69.9125 1.34851 91.4766 1.33719C102.269 1.33152 112.045 1.33274 119.219 1.34508C122.807 1.35126 125.742 1.36021 127.829 1.37247C128.873 1.3786 129.703 1.38555 130.295 1.39336C130.591 1.39727 130.825 1.40136 130.996 1.40561C131.081 1.40773 131.148 1.40983 131.197 1.41184C131.244 1.41375 131.262 1.4151 131.262 1.41502L131.26 1.41482C132.116 1.50045 132.928 1.69693 133.721 2.47134C134.553 3.2829 135.463 4.82732 136.219 7.85243C136.948 10.7678 139.185 12.4495 141.487 13.3678C143.773 14.2795 146.269 14.5061 147.897 14.4397H202.868C205.537 14.4397 207.5 13.3037 209.042 11.5186C210.54 9.7833 211.66 7.41365 212.728 4.89039C214.355 1.04455 216.237 0.962255 216.455 1.00903L216.557 1.03097L216.662 1.03122C242.962 1.09601 300.835 1.30329 321.97 1.6141C332.056 1.76244 338.281 7.65691 342.012 15.1442C345.763 22.6695 346.924 31.7003 346.828 37.715L346.828 37.7234V37.7318C346.958 177.657 347.139 462.527 346.828 482.726C346.529 502.206 331.055 511.663 323.201 514H35.1733C19.9296 514 11.1711 507.021 6.33091 498.335C1.44897 489.575 0.524525 479.008 1.19183 471.953Z" stroke="white" stroke-opacity="0.1" stroke-width="2"/>
</g>
<defs>
<filter id="filter0_bi_494_85" x="-50" y="-50" width="448" height="615" filterUnits="userSpaceOnUse" color-interpolation-filters="sRGB">
<feFlood flood-opacity="0" result="BackgroundImageFix"/>
<feGaussianBlur in="BackgroundImageFix" stdDeviation="25"/>
<feComposite in2="SourceAlpha" operator="in" result="effect1_backgroundBlur_494_85"/>
<feBlend mode="normal" in="SourceGraphic" in2="effect1_backgroundBlur_494_85" result="shape"/>
<feColorMatrix in="SourceAlpha" type="matrix" values="0 0 0 0 0 0 0 0 0 0 0 0 0 0 0 0 0 0 127 0" result="hardAlpha"/>
<feOffset dy="14"/>
<feGaussianBlur stdDeviation="22"/>
<feComposite in2="hardAlpha" operator="arithmetic" k2="-1" k3="1"/>
<feColorMatrix type="matrix" values="0 0 0 0 1 0 0 0 0 1 0 0 0 0 1 0 0 0 0.1 0"/>
<feBlend mode="normal" in2="shape" result="effect2_innerShadow_494_85"/>
</filter>
<linearGradient id="paint0_linear_494_85" x1="174" y1="0" x2="174" y2="515" gradientUnits="userSpaceOnUse">
<stop stop-color="#C4C4C4" stop-opacity="0"/>
<stop offset="1" stop-color="#C4C4C4"/>
</linearGradient>
</defs>
</svg>
